<?xml version="1.0" standalone="no"?>
<!DOCTYPE svg PUBLIC "-//W3C//DTD SVG 20010904//EN"
 "http://www.w3.org/TR/2001/REC-SVG-20010904/DTD/svg10.dtd">
<svg version="1.0" xmlns="http://www.w3.org/2000/svg"
 width="800.000000pt" height="800.000000pt" viewBox="0 0 800.000000 800.000000"
 preserveAspectRatio="xMidYMid meet">

<g transform="translate(0.000000,800.000000) scale(0.100000,-0.100000)"
fill="#000000" stroke="none">
<path d="M2900 5901 c0 -5 -15 -8 -34 -5 -19 2 -38 -1 -41 -6 -4 -6 -11 -8
-16 -5 -5 4 -9 2 -9 -3 0 -16 12 -21 30 -12 11 6 24 4 38 -6 12 -8 27 -12 32
-9 6 4 17 1 25 -5 13 -11 13 -8 4 19 -11 31 -29 51 -29 32z"/>
<path d="M3184 5583 c-67 -82 -77 -93 -90 -93 -7 0 -34 -20 -61 -45 -26 -25
-44 -45 -39 -45 5 0 3 -7 -4 -16 -11 -12 -10 -18 4 -32 13 -13 18 -14 25 -4 4
7 18 11 32 10 17 -2 24 2 23 14 -1 11 8 19 26 23 33 7 58 33 95 100 16 28 34
57 41 65 7 8 16 27 19 43 12 45 -26 35 -71 -20z"/>
<path d="M3337 5604 c-4 -4 -7 -18 -7 -31 0 -13 -7 -26 -15 -29 -22 -9 -18
-19 7 -21 11 -1 25 -8 29 -15 4 -7 9 -10 11 -8 21 33 26 52 19 76 -7 28 -30
42 -44 28z"/>
<path d="M3453 5555 c-35 -18 -12 -38 54 -43 62 -5 63 1 3 35 -29 16 -39 18
-57 8z"/>
<path d="M3320 5464 c0 -29 -3 -35 -16 -30 -9 4 -23 1 -30 -5 -19 -16 -18 -40
1 -33 22 9 18 -10 -7 -32 -19 -17 -21 -17 -15 -1 5 13 1 17 -20 17 -15 0 -34
-6 -42 -14 -22 -19 -97 -33 -255 -47 l-136 -12 0 -44 c0 -49 1 -50 104 -33
162 26 264 38 294 35 80 -7 37 -28 -96 -46 -90 -13 -93 -14 -87 -36 4 -18 0
-25 -18 -32 -29 -11 -32 -41 -4 -41 47 0 1 -15 -51 -17 -52 -1 -60 -5 -89 -39
-28 -32 -32 -43 -28 -80 3 -34 0 -44 -13 -47 -9 -3 -4 -5 12 -6 16 0 48 -13
72 -28 39 -25 44 -32 44 -65 0 -40 -6 -46 -60 -65 -27 -9 -36 -9 -42 0 -6 9
-8 9 -8 0 0 -7 -7 -13 -15 -13 -13 0 -15 -24 -15 -154 0 -93 4 -157 10 -161 6
-3 10 -11 10 -16 0 -6 -4 -7 -10 -4 -7 4 -10 -50 -10 -154 0 -89 3 -161 8
-161 23 1 347 178 344 189 -1 7 5 11 15 9 10 -3 119 46 243 109 124 62 228
113 231 113 4 0 5 -10 3 -22 -4 -24 -34 -595 -34 -643 0 -25 3 -27 28 -21 52
13 87 17 182 18 104 0 258 -10 272 -18 13 -8 299 138 306 156 3 8 10 18 16 22
13 9 -1 20 -123 98 -69 43 -97 56 -103 47 -5 -8 -8 -6 -8 8 0 15 -47 49 -181
135 -100 63 -186 117 -191 119 -6 2 -14 -3 -19 -10 -6 -10 -9 -8 -9 8 0 17
-16 33 -60 60 -33 21 -60 41 -60 44 0 4 65 40 145 80 92 47 143 79 140 87 -2
6 3 12 13 13 9 1 24 2 32 3 15 1 414 201 471 235 l30 19 -48 29 c-57 35 -83
45 -83 34 0 -5 -12 -11 -27 -14 l-28 -5 24 19 c13 11 22 21 20 23 -2 1 -20 12
-40 24 -31 19 -42 21 -65 11 -37 -14 -275 -4 -364 15 -36 8 -56 15 -45 15 19
2 19 2 2 16 -11 7 -25 11 -33 8 -8 -3 -14 0 -14 6 0 20 73 2 154 -37 5 -3 6 0
3 5 -9 14 63 25 78 13 13 -11 139 -12 167 -1 13 5 -5 20 -75 62 -50 31 -175
106 -277 168 -112 68 -192 110 -202 108 -10 -3 -18 -1 -18 5 0 5 -6 8 -12 5
-7 -2 -21 2 -30 11 -16 13 -18 13 -24 -2 -5 -13 -14 -15 -34 -11 -28 6 -38 -7
-45 -57 -4 -29 -26 -48 -55 -48 -25 0 -28 3 -25 33 5 59 -5 87 -31 87 -13 0
-24 5 -24 10 0 6 -4 10 -10 10 -5 0 -10 -16 -10 -36z m-105 -114 c-13 -20 -61
-38 -120 -44 l-60 -6 50 14 c28 7 68 20 90 29 22 8 41 15 43 16 2 0 0 -4 -3
-9z m381 -75 c1 -7 -4 -16 -12 -19 -8 -3 -14 0 -14 6 0 7 -17 9 -51 5 -64 -8
-57 2 13 18 56 13 61 12 64 -10z m-409 9 c-3 -3 -12 -4 -19 -1 -8 3 -5 6 6 6
11 1 17 -2 13 -5z m254 -33 c-26 -20 -61 -17 -61 5 0 10 13 14 43 14 l42 0
-24 -19z m-81 -6 c0 -8 -6 -12 -14 -9 -22 8 -25 -9 -4 -28 15 -15 18 -15 18
-3 0 8 5 15 11 15 6 0 9 -19 7 -47 -3 -46 -4 -48 -30 -45 -21 2 -28 -2 -28
-15 0 -15 -2 -16 -11 -3 -8 12 -10 11 -7 -5 3 -17 11 -20 48 -20 25 0 59 3 75
7 22 5 18 1 -15 -14 -43 -21 -80 -23 -220 -15 -8 0 -37 -2 -65 -5 -27 -3 -41
-3 -30 -1 11 3 28 11 39 18 11 8 31 12 47 8 24 -5 27 -3 22 16 -4 15 -1 21 12
21 9 0 23 7 31 15 9 8 28 15 44 15 33 0 48 16 31 33 -15 15 -14 64 2 70 23 10
37 7 37 -8z m177 -11 c-3 -3 -12 -4 -19 -1 -8 3 -5 6 6 6 11 1 17 -2 13 -5z
m451 -81 c-10 -2 -26 -2 -35 0 -10 3 -2 5 17 5 19 0 27 -2 18 -5z m-918 -63
c0 -5 -7 -10 -16 -10 -8 0 -12 5 -9 10 3 6 10 10 16 10 5 0 9 -4 9 -10z m-150
-147 c0 -12 -2 -12 -15 1 -8 8 -15 17 -15 20 0 3 7 3 15 0 8 -4 15 -13 15 -21z
m170 -58 c0 -8 6 -15 14 -15 16 0 32 -37 21 -48 -4 -4 -11 1 -16 11 -6 9 -16
17 -23 17 -22 0 -37 25 -24 38 16 16 28 15 28 -3z m1130 -21 c0 -8 -5 -12 -10
-9 -6 4 -8 11 -5 16 9 14 15 11 15 -7z m-723 -46 c-3 -8 -6 -5 -6 6 -1 11 2
17 5 13 3 -3 4 -12 1 -19z m217 -3 c-4 -8 -8 -15 -10 -15 -2 0 -4 7 -4 15 0 8
4 15 10 15 5 0 7 -7 4 -15z m-420 -15 c-7 -7 -19 -7 -35 -1 -23 9 -22 10 11
10 23 1 31 -2 24 -9z m-4 -60 c0 -5 -12 -10 -26 -10 -14 0 -23 4 -19 10 3 6
15 10 26 10 10 0 19 -4 19 -10z m-145 -10 c-3 -5 -13 -10 -21 -10 -8 0 -14 5
-14 10 0 6 9 10 21 10 11 0 17 -4 14 -10z m705 -64 c0 -3 -4 -8 -10 -11 -5 -3
-10 -1 -10 4 0 6 5 11 10 11 6 0 10 -2 10 -4z m-225 -16 c3 -5 1 -10 -4 -10
-6 0 -11 5 -11 10 0 6 2 10 4 10 3 0 8 -4 11 -10z m95 0 c0 -5 -5 -10 -11 -10
-5 0 -7 5 -4 10 3 6 8 10 11 10 2 0 4 -4 4 -10z m-490 -20 c-82 -27 -90 -29
-90 -15 0 14 29 21 85 23 29 0 29 0 5 -8z m-190 -30 c0 -13 -11 -13 -30 0 -12
8 -11 10 8 10 12 0 22 -4 22 -10z m182 -35 c0 -5 -5 -11 -11 -13 -6 -2 -11 4
-11 13 0 9 5 15 11 13 6 -2 11 -8 11 -13z m-132 -75 c0 -5 -7 -10 -16 -10 -8
0 -12 5 -9 10 3 6 10 10 16 10 5 0 9 -4 9 -10z m80 -25 c8 0 15 -9 15 -19 0
-17 -7 -19 -70 -18 -120 1 -125 1 -125 16 0 10 17 14 62 15 34 1 66 5 72 11 5
5 14 6 20 2 6 -3 18 -7 26 -7z m106 -11 c7 3 16 1 19 -4 10 -16 -44 -24 -61
-9 -14 12 -14 14 3 26 15 12 18 12 21 -2 2 -9 10 -14 18 -11z m-296 -12 c0
-11 -22 -32 -33 -32 -4 0 -5 5 -2 10 3 6 1 10 -5 10 -6 0 -8 5 -5 10 7 12 45
14 45 2z m153 -39 c-7 -2 -19 -2 -25 0 -7 3 -2 5 12 5 14 0 19 -2 13 -5z m164
-19 c3 -18 2 -17 -6 1 -8 16 -10 17 -10 4 -1 -21 -13 -25 -84 -34 -40 -5 -57
-4 -57 4 0 6 8 11 18 11 13 0 14 2 3 9 -11 7 -9 10 8 16 13 4 25 5 27 2 3 -3
17 -1 32 3 40 12 67 5 69 -16z m-192 -22 l30 -9 -37 -8 c-44 -9 -68 -2 -68 20
0 16 14 15 75 -3z m-130 -2 c-3 -6 1 -7 9 -4 9 3 16 1 16 -5 0 -12 -23 -14
-60 -4 l-25 7 25 7 c36 10 42 10 35 -1z m880 -20 c-3 -5 -10 -10 -16 -10 -5 0
-9 5 -9 10 0 6 7 10 16 10 8 0 12 -4 9 -10z m-750 -60 c-11 -5 -40 -8 -65 -8
l-45 1 50 7 c72 10 83 10 60 0z m-130 -10 c-3 -5 -17 -10 -31 -10 -13 0 -24 5
-24 10 0 6 14 10 31 10 17 0 28 -4 24 -10z m-125 -10 c0 -5 -5 -10 -11 -10 -5
0 -7 5 -4 10 3 6 8 10 11 10 2 0 4 -4 4 -10z m997 3 c-2 -5 -7 -16 -10 -26 -6
-17 -9 -17 -22 -3 -9 8 -23 12 -33 9 -12 -4 -14 -3 -7 5 15 16 80 29 72 15z
m73 -13 c0 -5 -2 -10 -4 -10 -3 0 -8 5 -11 10 -3 6 -1 10 4 10 6 0 11 -4 11
-10z m-210 -19 c0 -10 -7 -21 -15 -25 -9 -3 -15 0 -15 10 0 8 5 12 10 9 6 -3
10 1 10 9 0 9 2 16 5 16 3 0 5 -9 5 -19z m193 -50 c-5 -3 -13 -14 -16 -25 -6
-15 -10 -16 -22 -6 -23 19 -18 37 13 48 27 9 45 -3 25 -17z m97 -20 c0 -13 -2
-13 -9 -2 -7 11 -10 10 -14 -5 -3 -14 -5 -11 -6 8 -1 20 3 26 14 22 8 -4 15
-14 15 -23z m-235 -10 c-3 -6 -14 -11 -23 -11 -15 1 -15 2 2 15 21 16 32 13
21 -4z m390 -61 c-3 -5 -1 -10 6 -10 7 0 10 -3 6 -6 -9 -9 -28 6 -22 17 4 5 8
9 11 9 3 0 2 -4 -1 -10z m-225 -10 c0 -5 -2 -10 -4 -10 -3 0 -8 5 -11 10 -3 6
-1 10 4 10 6 0 11 -4 11 -10z m398 -52 c-6 -18 -28 -21 -28 -4 0 9 7 16 16 16
9 0 14 -5 12 -12z"/>
<path d="M3238 4383 c7 -3 16 -2 19 1 4 3 -2 6 -13 5 -11 0 -14 -3 -6 -6z"/>
<path d="M3871 4164 c0 -11 3 -14 6 -6 3 7 2 16 -1 19 -3 4 -6 -2 -5 -13z"/>
<path d="M4512 4922 c2 -10 11 -16 21 -14 9 2 17 -2 17 -8 0 -5 -11 -10 -25
-10 -22 0 -25 -4 -25 -34 0 -19 6 -37 13 -39 9 -4 9 -7 -1 -14 -8 -6 -14 -49
-17 -124 -3 -63 -8 -126 -11 -142 -4 -19 -1 -29 11 -33 14 -6 14 -9 1 -29 -13
-20 -36 -292 -36 -428 0 -27 -4 -38 -13 -34 -6 2 -19 -3 -27 -11 -13 -14 -12
-15 4 -9 17 7 18 -1 11 -145 -3 -84 -8 -171 -10 -193 -9 -103 -28 -595 -23
-601 3 -3 37 13 75 36 160 97 251 153 298 184 28 18 119 75 203 127 84 52 190
117 235 145 45 28 159 99 252 157 94 58 170 111 170 119 0 7 11 14 25 14 14 1
99 48 189 104 l163 103 -38 23 c-43 26 -54 29 -54 14 0 -5 -5 -10 -11 -10 -6
0 -8 8 -5 18 5 14 -30 38 -174 124 -110 66 -185 106 -194 102 -10 -4 -16 -1
-16 10 0 8 -24 29 -52 46 -43 25 -61 30 -98 27 -25 -3 -39 -2 -32 0 6 3 10 8
7 12 -2 5 8 6 23 3 23 -4 21 0 -18 26 -142 94 -158 101 -189 92 -25 -7 -33 -5
-41 9 -5 10 -6 21 -3 25 3 3 1 6 -5 6 -7 0 -12 -7 -12 -16 0 -8 -5 -12 -10 -9
-6 4 -7 13 -1 24 8 14 0 23 -40 51 -27 18 -57 33 -67 33 -9 0 -20 5 -25 11 -5
7 -12 5 -21 -7 -11 -15 -22 -17 -47 -12 -29 7 -31 5 -26 -14 4 -18 2 -21 -14
-16 -15 5 -19 1 -19 -19 0 -15 6 -26 13 -26 20 0 67 -24 67 -34 0 -5 -12 -6
-27 -3 -36 7 -67 -15 -59 -41 5 -15 1 -21 -16 -26 -35 -9 -36 -8 -43 24 -4 16
-11 32 -16 35 -5 4 -9 22 -9 41 0 27 5 37 25 46 26 12 35 30 13 25 -9 -1 -13
11 -13 35 0 20 -3 40 -7 44 -5 4 -8 21 -8 37 0 23 3 28 18 23 11 -4 8 1 -8 15
-13 11 -26 16 -28 10 -5 -14 -32 -2 -32 15 0 15 -76 67 -148 102 -39 19 -43
19 -40 4z m28 -183 c0 -5 -7 -9 -15 -9 -8 0 -15 7 -15 15 0 9 6 12 15 9 8 -4
15 -10 15 -15z m42 -38 c28 -14 49 -57 22 -47 -8 3 -14 -1 -14 -8 0 -8 7 -16
15 -20 24 -9 -4 -48 -29 -40 -16 5 -18 2 -14 -30 2 -20 3 -36 1 -36 -1 0 -10
16 -19 36 -15 32 -16 38 -3 48 8 6 14 24 13 39 -1 15 3 30 7 33 16 10 9 24
-12 24 -11 0 -17 4 -14 11 4 5 10 9 13 7 4 -2 19 -10 34 -17z m153 -41 c-5
-14 -13 -20 -28 -18 -31 4 -34 36 -5 47 29 11 42 0 33 -29z m225 -29 c0 -5 -7
-12 -16 -15 -24 -9 -28 -7 -14 9 14 17 30 20 30 6z m-277 -84 c-3 -6 -11 -3
-19 8 -7 10 -11 22 -7 28 3 6 11 3 19 -8 7 -10 11 -22 7 -28z m339 11 c-7 -7
-12 -8 -12 -2 0 6 3 14 7 17 3 4 9 5 12 2 2 -3 -1 -11 -7 -17z m-291 -45 c0
-5 2 -17 5 -28 2 -11 1 -27 -2 -35 -4 -11 -9 -9 -19 10 -7 14 -11 28 -9 32 3
5 -2 8 -10 8 -9 0 -16 5 -16 10 0 11 50 14 51 3z m456 -8 c8 -23 -2 -28 -27
-15 -18 10 -20 14 -9 21 20 13 29 11 36 -6z m-577 -10 c0 -15 -48 -40 -58 -30
-3 3 0 5 7 5 7 0 11 6 8 14 -7 18 1 26 25 26 10 0 18 -7 18 -15z m470 -5 c0
-5 0 -12 0 -15 0 -3 -2 -5 -5 -5 -3 0 -5 3 -4 6 0 4 -5 11 -13 15 -10 7 -9 9
5 9 9 0 17 -4 17 -10z m60 -71 c0 -15 -5 -20 -22 -17 -30 4 -34 26 -6 31 13 2
24 5 26 6 1 0 2 -8 2 -20z m-585 -9 c3 -5 1 -10 -4 -10 -6 0 -11 5 -11 10 0 6
2 10 4 10 3 0 8 -4 11 -10z m80 1 c3 -5 1 -12 -5 -16 -5 -3 -10 1 -10 9 0 18
6 21 15 7z m488 -38 c-7 -2 -19 -2 -25 0 -7 3 -2 5 12 5 14 0 19 -2 13 -5z
m57 -22 c-12 -23 -29 -35 -37 -27 -7 7 27 44 40 45 4 1 3 -8 -3 -18z m-94 -38
c2 -11 -5 -28 -14 -36 -17 -15 -19 -15 -35 4 -16 19 -16 20 5 29 13 5 19 9 15
9 -5 1 -5 6 -2 12 10 15 28 6 31 -18z m339 17 c3 -5 2 -10 -4 -10 -5 0 -13 5
-16 10 -3 6 -2 10 4 10 5 0 13 -4 16 -10z m-310 -61 c-5 -22 -3 -29 9 -29 13
0 12 -4 -4 -20 -24 -24 -34 -26 -26 -5 4 11 -1 15 -18 15 -27 0 -108 -71 -103
-91 2 -8 2 -11 0 -6 -3 4 -13 7 -22 7 -14 0 -17 -6 -13 -31 3 -21 1 -30 -6
-25 -6 4 -8 14 -5 22 5 13 1 15 -18 9 -13 -4 -28 -14 -32 -21 -4 -8 -18 -14
-30 -14 -19 1 -20 2 -5 11 9 5 15 15 12 22 -2 7 19 21 56 35 64 25 62 23 44
77 -2 6 8 18 21 28 25 18 25 18 26 -10 1 -15 3 -21 6 -12 3 12 14 16 36 15 27
-1 34 4 47 30 18 38 34 34 25 -7z m194 -16 c14 -11 13 -12 -10 -13 -34 0 -41
8 -27 34 9 16 12 18 16 6 3 -8 12 -20 21 -27z m-69 20 c0 -5 -7 -16 -14 -26
-11 -14 -15 -15 -24 -4 -9 10 -8 17 0 25 13 13 38 16 38 5z m-300 -47 c0 -13
-8 -33 -17 -45 -17 -20 -19 -21 -38 -6 -11 9 -15 14 -8 10 15 -7 53 29 53 50
0 8 2 15 5 15 3 0 5 -11 5 -24z m-70 4 c0 -5 -5 -10 -11 -10 -5 0 -7 5 -4 10
3 6 8 10 11 10 2 0 4 -4 4 -10z m714 1 c3 -4 -6 -6 -19 -3 -14 2 -25 6 -25 8
0 8 39 4 44 -5z m-464 -57 c0 -2 -7 -4 -15 -4 -8 0 -15 4 -15 10 0 5 7 7 15 4
8 -4 15 -8 15 -10z m-80 -4 c0 -5 3 -9 8 -9 21 4 32 -3 32 -18 1 -27 25 -54
43 -47 8 3 18 1 22 -5 3 -6 -2 -11 -12 -12 -10 0 -3 -6 17 -14 l35 -13 -32 -1
c-30 -1 -50 -21 -21 -21 8 0 9 -3 2 -10 -12 -12 -47 -2 -38 11 3 5 -3 9 -14 9
-27 0 -34 11 -15 25 15 11 15 13 -5 24 -13 7 -20 16 -17 22 4 5 1 9 -5 9 -7 0
-9 7 -6 16 4 9 1 23 -5 30 -8 10 -8 14 0 14 6 0 11 -4 11 -10z m485 -8 c-3 -3
-11 0 -18 7 -9 10 -8 11 6 5 10 -3 15 -9 12 -12z m-312 -40 c-23 -21 -62 -24
-49 -3 3 5 -1 11 -9 15 -30 11 -15 25 17 15 43 -12 45 -12 22 6 -17 13 -16 13
13 3 l32 -12 -26 -24z m226 33 c2 -3 0 -10 -7 -17 -13 -13 -75 9 -66 24 6 9
62 4 73 -7z m-623 -30 c-7 -18 -26 -20 -26 -2 0 18 24 41 28 27 2 -6 1 -17 -2
-25z m851 29 c-3 -3 -12 -4 -19 -1 -8 3 -5 6 6 6 11 1 17 -2 13 -5z m-687 -55
c0 -5 -7 -9 -15 -9 -8 0 -15 7 -15 15 0 9 6 12 15 9 8 -4 15 -10 15 -15z m320
17 c0 -3 -4 -8 -10 -11 -5 -3 -10 -1 -10 4 0 6 5 11 10 11 6 0 10 -2 10 -4z
m-480 -24 c0 -4 -5 -13 -12 -20 -17 -17 45 -16 72 0 15 10 22 10 32 0 7 -7 8
-12 1 -12 -5 0 -8 -10 -6 -22 2 -13 -2 -32 -10 -42 -14 -19 -15 -18 -46 13
-28 29 -31 30 -31 11 0 -12 4 -19 9 -15 6 3 6 -8 0 -27 -6 -18 -13 -41 -16
-50 -3 -10 -14 -20 -24 -23 -23 -8 -25 -23 -3 -32 8 -3 13 -12 10 -20 -10 -24
3 -33 31 -22 20 7 28 6 35 -3 13 -22 9 -34 -12 -34 -23 0 -25 7 -7 25 10 11 8
11 -11 2 -18 -10 -20 -15 -12 -31 13 -24 13 -43 0 -35 -5 3 -10 15 -10 26 0
21 -16 26 -23 7 -3 -8 -6 -5 -6 5 -1 10 -5 16 -10 13 -11 -7 -18 68 -10 114 4
21 7 26 8 13 2 -38 29 -16 33 27 3 30 1 36 -9 28 -10 -8 -13 -5 -14 13 l-1 24
-8 -25 c-7 -21 -8 -17 -9 20 0 28 2 40 8 32 7 -11 9 -11 14 2 4 10 1 16 -8 16
-8 0 -15 4 -15 9 0 8 10 12 53 20 4 0 7 -3 7 -7z m430 -26 c0 -6 -14 -31 -30
-53 -17 -23 -26 -43 -20 -45 7 -2 5 -11 -5 -23 -14 -19 -16 -19 -26 -2 -5 9
-19 17 -29 17 -29 0 -25 34 5 54 13 9 36 16 50 16 17 0 25 5 22 13 -6 17 12
49 24 42 5 -4 9 -12 9 -19z m210 15 c0 -5 8 -11 18 -13 11 -2 13 -6 6 -10 -6
-4 -19 1 -29 12 -10 12 -13 20 -7 20 7 0 12 -4 12 -9z m-435 -26 c0 -14 -6
-19 -20 -17 -30 5 -42 21 -25 32 23 15 45 7 45 -15z m802 19 c-3 -3 -12 -4
-19 -1 -8 3 -5 6 6 6 11 1 17 -2 13 -5z m-1137 -39 c-1 -13 -48 -26 -55 -15
-3 5 -12 7 -20 3 -24 -9 -17 7 8 17 27 11 68 8 67 -5z m667 9 c-3 -3 -12 -4
-19 -1 -8 3 -5 6 6 6 11 1 17 -2 13 -5z m-787 -24 c0 -5 -7 -10 -15 -10 -8 0
-15 5 -15 10 0 6 7 10 15 10 8 0 15 -4 15 -10z m180 -35 c0 -8 -6 -15 -14 -15
-20 0 -29 17 -14 23 22 9 28 7 28 -8z m330 5 c0 -16 -39 -55 -47 -47 -3 4 -1
7 5 7 7 0 12 4 12 9 0 5 -9 7 -20 4 -25 -7 -26 5 -2 23 21 16 52 18 52 4z
m-104 -25 c-25 -19 -37 -19 -30 0 4 8 16 15 28 15 21 -1 21 -1 2 -15z m-351
-25 c3 -5 1 -10 -4 -10 -6 0 -11 5 -11 10 0 6 2 10 4 10 3 0 8 -4 11 -10z
m125 0 c0 -5 -4 -10 -10 -10 -5 0 -10 5 -10 10 0 6 5 10 10 10 6 0 10 -4 10
-10z m123 -28 c-3 -11 9 -16 28 -14 4 1 5 -8 2 -18 -4 -14 0 -20 11 -20 9 0
16 -7 16 -15 0 -10 10 -15 31 -15 24 0 30 -4 25 -16 -3 -8 -2 -12 4 -9 13 8
13 -5 0 -25 -8 -12 -10 -12 -16 3 -3 9 -13 17 -21 17 -7 0 -25 11 -38 24 -13
14 -34 27 -45 31 -11 3 -20 11 -20 16 0 6 5 7 10 4 17 -10 11 17 -7 38 -17 19
-17 19 2 15 11 -2 19 -10 18 -16z m269 -7 c0 -6 4 -15 10 -22 13 -16 5 -27
-35 -50 l-33 -20 2 41 c3 60 12 76 36 67 11 -4 20 -11 20 -16z m578 16 c0 -6
-4 -13 -10 -16 -5 -3 -10 1 -10 9 0 9 5 16 10 16 6 0 10 -4 10 -9z m-710 -21
c0 -5 -4 -10 -10 -10 -5 0 -10 5 -10 10 0 6 5 10 10 10 6 0 10 -4 10 -10z
m243 -8 c10 -10 14 -22 10 -25 -10 -11 -33 -8 -33 4 0 5 5 7 10 4 17 -11 11 7
-7 21 -10 7 -13 14 -7 14 6 0 18 -8 27 -18z m-583 -6 c0 -2 -7 -6 -15 -10 -8
-3 -15 -1 -15 4 0 6 7 10 15 10 8 0 15 -2 15 -4z m808 -18 c-6 -18 -25 -21
-25 -3 0 8 7 15 15 15 7 0 12 -5 10 -12z m-483 -8 c3 -5 1 -10 -4 -10 -6 0
-11 5 -11 10 0 6 2 10 4 10 3 0 8 -4 11 -10z m59 -45 c-4 -8 -3 -23 1 -32 11
-26 13 -53 3 -47 -4 3 -8 -2 -8 -10 0 -8 -5 -18 -10 -21 -11 -7 -8 30 3 41 3
4 2 15 -4 25 -6 13 -6 25 1 39 13 23 22 27 14 5z m161 5 c4 -6 -5 -10 -19 -10
-14 0 -26 5 -26 10 0 6 9 10 19 10 11 0 23 -4 26 -10z m-248 -66 c-6 -7 -37
25 -37 39 0 6 9 1 21 -12 12 -12 19 -24 16 -27z m-321 13 c4 -4 -4 -7 -19 -7
-14 0 -29 5 -32 10 -7 12 39 9 51 -3z m54 -17 c0 -5 -7 -7 -15 -4 -8 4 -15 8
-15 10 0 2 7 4 15 4 8 0 15 -4 15 -10z m30 -11 c0 -5 -4 -9 -10 -9 -5 0 -10 7
-10 16 0 8 5 12 10 9 6 -3 10 -10 10 -16z m430 -7 c0 -11 -39 -12 -45 -1 -4 5
5 9 19 9 14 0 26 -4 26 -8z m212 -14 c-7 -7 -12 -8 -12 -2 0 14 12 26 19 19 2
-3 -1 -11 -7 -17z m-185 -103 c0 -8 -4 -15 -9 -15 -4 0 -8 7 -8 15 0 8 4 15 8
15 5 0 9 -7 9 -15z m-77 -30 c0 -12 -19 -12 -23 0 -4 9 -1 12 9 8 7 -3 14 -7
14 -8z m-77 -19 c16 -12 15 -13 -8 -13 -15 0 -25 5 -25 13 0 17 10 17 33 0z"/>
<path d="M5104 3874 c3 -9 6 -20 6 -26 0 -6 9 -3 20 7 23 20 18 35 -12 35 -14
0 -18 -5 -14 -16z"/>
<path d="M2818 4843 c-14 -4 -16 -8 -8 -24 6 -10 18 -19 27 -19 12 0 13 3 4
14 -9 11 -9 15 1 18 17 6 -4 15 -24 11z"/>
<path d="M2898 4813 c6 -2 18 -2 25 0 6 3 1 5 -13 5 -14 0 -19 -2 -12 -5z"/>
<path d="M4790 4758 c0 -7 7 -21 15 -32 13 -17 14 -17 12 9 -2 28 -27 49 -27
23z"/>
<path d="M4850 4715 c0 -8 -8 -15 -18 -15 -35 0 -35 -11 -3 -60 9 -13 12 -12
24 4 7 10 25 19 40 19 47 0 52 22 12 46 -43 25 -55 26 -55 6z"/>
<path d="M4780 4664 c0 -8 5 -12 10 -9 6 4 8 11 5 16 -9 14 -15 11 -15 -7z"/>
<path d="M5130 4566 c0 -2 7 -9 15 -16 9 -7 15 -8 15 -2 0 5 -7 12 -15 16 -8
3 -15 4 -15 2z"/>
<path d="M2808 4064 c-5 -4 -8 -43 -8 -86 0 -78 0 -79 22 -67 16 8 23 9 26 1
2 -6 10 -8 18 -5 18 7 18 -4 0 -23 -8 -8 -26 -14 -39 -14 -25 0 -25 0 -26
-101 -1 -65 3 -107 11 -116 9 -11 9 -17 -3 -24 -27 -17 2 -9 54 15 70 32 157
58 172 52 7 -2 32 5 55 16 23 11 56 22 73 24 18 3 33 9 35 14 2 6 13 8 25 5
21 -5 57 9 47 18 -7 7 -261 171 -353 229 -43 27 -82 46 -87 43 -5 -3 -10 2
-12 11 -2 9 -6 12 -10 8z m82 -79 c10 -12 10 -15 -4 -15 -9 0 -16 7 -16 15 0
8 2 15 4 15 2 0 9 -7 16 -15z"/>
<path d="M3634 3820 c-24 -10 -34 -60 -34 -177 l0 -74 229 118 c226 116 229
118 193 126 -56 11 -364 17 -388 7z"/>
<path d="M3266 3744 c-19 -18 -21 -43 -3 -40 68 14 82 27 48 46 -25 13 -27 13
-45 -6z"/>
<path d="M3147 3689 c3 -10 11 -15 19 -12 20 7 17 20 -5 26 -14 3 -17 0 -14
-14z"/>
<path d="M3320 3699 c0 -7 -9 -9 -21 -6 -15 4 -19 2 -15 -9 3 -9 -1 -14 -13
-14 -10 0 -24 -7 -31 -15 -7 -8 -21 -15 -30 -15 -10 0 -20 -3 -22 -7 -8 -20
-294 -127 -363 -137 -19 -3 -20 -12 -23 -194 -1 -106 0 -192 3 -192 3 0 24 9
46 21 22 11 45 19 51 17 11 -4 -75 -68 -91 -68 -17 0 -15 -486 2 -494 10 -5
10 -7 0 -12 -8 -3 -13 -24 -13 -50 0 -37 3 -44 19 -44 11 0 23 -5 26 -10 4 -7
12 -7 25 0 26 14 31 13 28 -6 -2 -10 5 -18 15 -19 9 -2 17 1 17 7 0 5 15 8 33
6 22 -2 38 3 50 17 10 11 16 15 13 9 -3 -6 4 -21 15 -32 15 -17 17 -26 9 -41
-12 -24 -13 -41 -1 -41 5 0 11 9 14 20 5 20 37 29 37 10 0 -5 -4 -10 -10 -10
-5 0 -10 -7 -10 -15 0 -8 7 -15 15 -15 11 0 15 -8 13 -27 -3 -26 -1 -28 32
-26 19 1 37 -2 40 -7 3 -4 28 6 56 22 51 28 52 30 41 58 -6 16 -9 31 -6 34 10
10 49 -7 49 -21 0 -9 6 -13 15 -10 8 4 128 77 267 163 139 86 359 222 488 302
129 80 236 146 238 148 2 1 -2 13 -9 26 -25 47 -29 58 -29 75 0 9 -2 14 -5 11
-3 -3 -18 6 -34 21 -16 14 -106 76 -201 136 -94 61 -286 185 -424 278 -168
111 -262 167 -279 167 -15 0 -27 -5 -27 -11z m240 -286 c0 -5 -4 -14 -9 -22
-11 -17 -32 -5 -24 14 5 15 33 21 33 8z m-385 -35 c6 -4 2 -8 -7 -8 -10 0 -18
7 -18 17 0 9 3 12 8 7 4 -5 12 -12 17 -16z m195 -28 c0 -5 -5 -10 -11 -10 -5
0 -7 5 -4 10 3 6 8 10 11 10 2 0 4 -4 4 -10z m-255 -58 c-8 -8 -25 10 -19 20
4 6 9 5 15 -3 4 -7 6 -15 4 -17z m165 4 c0 -7 -9 -16 -20 -19 -33 -8 -16 23
18 32 1 1 2 -5 2 -13z m-266 -2 c9 -3 14 -10 11 -15 -7 -10 -35 0 -35 12 0 11
3 11 24 3z m-87 -36 c-3 -8 -6 -5 -6 6 -1 11 2 17 5 13 3 -3 4 -12 1 -19z
m258 -23 c-30 -25 -55 -32 -55 -17 0 8 29 25 60 35 26 9 26 7 -5 -18z m-205
-15 c0 -5 -4 -10 -10 -10 -5 0 -10 5 -10 10 0 6 5 10 10 10 6 0 10 -4 10 -10z
m610 -10 c0 -5 -4 -10 -10 -10 -5 0 -10 5 -10 10 0 6 5 10 10 10 6 0 10 -4 10
-10z m-495 -10 c-3 -5 -11 -10 -16 -10 -6 0 -7 5 -4 10 3 6 11 10 16 10 6 0 7
-4 4 -10z m-95 -19 c3 -1 -2 -6 -10 -11 -23 -15 -50 -12 -50 5 0 14 10 15 60
6z m610 -95 c0 -3 -4 -8 -10 -11 -5 -3 -10 -1 -10 4 0 6 5 11 10 11 6 0 10 -2
10 -4z m14 -81 c-19 -14 -19 -14 0 -15 11 0 16 -3 13 -6 -8 -8 -67 15 -67 26
0 4 16 7 37 8 33 1 35 0 17 -13z m-457 -51 c-3 -3 -12 -4 -19 -1 -8 3 -5 6 6
6 11 1 17 -2 13 -5z m403 -33 c0 -44 -50 -46 -57 -2 -2 17 2 21 27 21 23 0 30
-5 30 -19z m84 -9 c8 -14 -8 -30 -37 -37 -27 -7 -27 -7 -16 19 12 25 42 35 53
18z m-364 -136 c0 -3 -4 -8 -10 -11 -5 -3 -10 -1 -10 4 0 6 5 11 10 11 6 0 10
-2 10 -4z m-236 -141 c3 -8 1 -15 -3 -15 -5 0 -11 7 -15 15 -3 8 -1 15 3 15 5
0 11 -7 15 -15z m646 5 c0 -5 -7 -7 -15 -4 -8 4 -15 8 -15 10 0 2 7 4 15 4 8
0 15 -4 15 -10z m-800 -22 c10 -21 10 -21 -3 -6 -8 10 -17 15 -20 11 -4 -3 -7
-1 -7 5 0 20 19 13 30 -10z m230 12 c0 -5 -4 -10 -10 -10 -5 0 -10 5 -10 10 0
6 5 10 10 10 6 0 10 -4 10 -10z m-70 -30 c0 -5 -2 -10 -4 -10 -3 0 -8 5 -11
10 -3 6 -1 10 4 10 6 0 11 -4 11 -10z m127 -82 c-3 -8 -6 -5 -6 6 -1 11 2 17
5 13 3 -3 4 -12 1 -19z m-317 -22 c0 -3 -4 -8 -10 -11 -5 -3 -10 -1 -10 4 0 6
5 11 10 11 6 0 10 -2 10 -4z m402 -58 c-11 -11 -52 -2 -52 12 0 5 12 13 28 18
21 7 28 6 30 -6 2 -8 -1 -19 -6 -24z m-112 1 c0 -11 -3 -11 -24 -3 -23 9 -20
23 4 17 11 -3 20 -9 20 -14z m110 -69 c0 -12 -23 -27 -52 -34 -16 -3 -28 -2
-28 3 0 5 -2 15 -5 23 -4 9 7 13 40 14 25 1 45 -2 45 -6z"/>
<path d="M3123 3693 c4 -3 1 -13 -6 -22 -11 -14 -10 -14 5 -2 16 12 16 31 1
31 -4 0 -3 -3 0 -7z"/>
<path d="M3054 3665 c-19 -14 -18 -14 4 -15 13 0 22 6 22 15 0 19 -1 19 -26 0z"/>
<path d="M2943 3615 c0 -7 6 -11 14 -8 7 3 13 6 13 8 0 2 -6 5 -13 8 -8 3 -14
-1 -14 -8z"/>
<path d="M2850 3600 c-12 -8 -12 -10 5 -10 11 0 27 5 35 10 12 8 12 10 -5 10
-11 0 -27 -5 -35 -10z"/>
<path d="M2808 3563 c7 -3 16 -2 19 1 4 3 -2 6 -13 5 -11 0 -14 -3 -6 -6z"/>
<path d="M4302 3093 c2 -4 12 -25 21 -45 19 -42 24 -44 50 -24 18 14 24 32 7
21 -6 -3 -13 1 -16 10 -4 9 -20 23 -36 31 -17 9 -28 12 -26 7z"/>
<path d="M3036 2351 c-3 -5 1 -11 9 -15 20 -7 19 -33 -2 -45 -15 -8 -15 -11
-3 -12 8 -1 18 -1 23 0 4 0 7 -2 7 -6 0 -5 14 -9 30 -10 21 -2 30 2 30 12 0 8
-9 15 -20 15 -11 0 -20 6 -20 14 0 8 -7 16 -15 20 -8 3 -15 12 -15 21 0 16
-15 20 -24 6z"/>
<path d="M2911 2282 c1 -16 3 -20 6 -10 2 9 12 18 21 20 13 3 12 5 -5 10 -20
5 -23 2 -22 -20z"/>
<path d="M2830 2275 c0 -8 5 -15 10 -15 6 0 10 7 10 15 0 8 -4 15 -10 15 -5 0
-10 -7 -10 -15z"/>
<path d="M3040 2220 c-8 -5 -12 -12 -9 -15 8 -8 39 5 39 16 0 11 -11 11 -30
-1z"/>
<path d="M2993 2205 c0 -8 4 -15 9 -15 4 0 8 4 8 9 0 6 -4 12 -8 15 -5 3 -9
-1 -9 -9z"/>
<path d="M2870 2185 c0 -8 7 -15 15 -15 8 0 15 7 15 15 0 8 -7 15 -15 15 -8 0
-15 -7 -15 -15z"/>
<path d="M2816 2097 c-32 -23 -15 -38 22 -20 24 12 30 18 20 24 -18 12 -21 11
-42 -4z"/>
</g>
</svg>
